<svg class="h-9 w-9 sm:h-12 sm:w-12 fill-mm-pink" viewBox="0 0 47 48" fill="#fb406c" xmlns="http://www.w3.org/2000/svg"><path fill-rule="evenodd" clip-rule="evenodd" d="M39.4135 5.85809C37.1986 5.57021 35.0366 6.10288 32.62 7.52659C29.9704 9.09129 27.5401 11.2259 25.3977 13.8696C24.7299 14.6941 24.1013 15.546 23.4962 16.3978L23.4942 16.3959C22.8891 15.544 22.2644 14.6921 21.5966 13.8696C19.4542 11.2239 17.0239 9.09129 14.3742 7.52659C11.9616 6.10288 9.80154 5.57021 7.58666 5.85809C3.32141 6.40446 0.31341 10.6991 0.176327 14.3631C0.0686185 17.2693 1.24558 19.678 2.13662 21.2369C3.82079 24.1763 6.42537 27.0375 9.74866 29.7948L9.5822 30.2609C8.62654 32.744 8.27208 35.0862 8.74012 37.7476C9.27279 40.7693 11.7716 42.5318 14.809 42.1695C16.5754 41.96 18.0324 41.161 19.3602 40.0545C21.0287 38.6641 22.3407 36.9819 23.4962 35.1783C24.6535 36.9819 25.9637 38.6641 27.6322 40.0545C28.9599 41.161 30.4169 41.96 32.1833 42.1695C35.2207 42.5318 37.7195 40.7693 38.2522 37.7476C38.7202 35.0862 38.3658 32.744 37.4101 30.2609L37.2437 29.7948C40.567 27.0375 43.1715 24.1763 44.8557 21.2369C45.7487 19.678 46.9237 17.2673 46.816 14.3631C46.6867 10.6991 43.6787 6.40446 39.4135 5.85809Z"></path></svg>